<?xml version="1.0" standalone="no"?>
<!DOCTYPE svg PUBLIC "-//W3C//DTD SVG 1.1//EN" "http://www.w3.org/Graphics/SVG/1.1/DTD/svg11.dtd">
<svg width="145" height="38" viewBox="-67 -25 145 38" xmlns="http://www.w3.org/2000/svg" version="1.1">
<title>OpenSCAD Model</title>
<path d="
M 50.6379,12.9843 L 51.2742,12.9374 L 51.9075,12.8593 L 52.5362,12.7502 L 53.1587,12.6104 L 53.7737,12.4402
 L 54.3796,12.2401 L 54.9749,12.0104 L 55.5582,11.7518 L 56.1281,11.465 L 56.6833,11.1505 L 57.2224,10.8091
 L 57.7441,10.4417 L 58.2471,10.0491 L 58.7303,9.63235 L 59.1924,9.19238 L 59.6324,8.73026 L 60.0491,8.2471
 L 60.4417,7.74408 L 60.8091,7.22241 L 61.1505,6.68333 L 61.465,6.12814 L 61.7518,5.55821 L 62.0104,4.97488
 L 62.2401,4.37956 L 62.4402,3.7737 L 62.6104,3.15874 L 62.7502,2.53616 L 62.8593,1.90749 L 62.9374,1.27422
 L 62.9843,0.637878 L 63,-0 L 74,-0 L 74.1963,-0.00482178 L 74.3921,-0.0192566 L 74.5869,-0.0432892
 L 74.7804,-0.0768585 L 74.9719,-0.119873 L 75.1611,-0.172241 L 75.3476,-0.233826 L 75.5307,-0.304489 L 75.7102,-0.384048
 L 75.8856,-0.472321 L 76.0564,-0.569092 L 76.2223,-0.674118 L 76.3828,-0.78717 L 76.5376,-0.907959 L 76.6862,-1.03619
 L 76.8284,-1.17157 L 76.9638,-1.31377 L 77.092,-1.46243 L 77.2128,-1.6172 L 77.3259,-1.77773 L 77.4309,-1.94359
 L 77.5277,-2.11441 L 77.616,-2.28978 L 77.6955,-2.46927 L 77.7662,-2.65244 L 77.8278,-2.83887 L 77.8801,-3.02808
 L 77.9231,-3.21964 L 77.9567,-3.41307 L 77.9807,-3.60793 L 77.9952,-3.80373 L 78,-4 L 78,-21
 L 77.9952,-21.1963 L 77.9807,-21.3921 L 77.9567,-21.5869 L 77.9231,-21.7804 L 77.8801,-21.9719 L 77.8278,-22.1611
 L 77.7662,-22.3476 L 77.6955,-22.5307 L 77.616,-22.7102 L 77.5277,-22.8856 L 77.4309,-23.0564 L 77.3259,-23.2223
 L 77.2128,-23.3828 L 77.092,-23.5376 L 76.9638,-23.6862 L 76.8284,-23.8284 L 76.6862,-23.9638 L 76.5376,-24.092
 L 76.3828,-24.2128 L 76.2223,-24.3259 L 76.0564,-24.4309 L 75.8856,-24.5277 L 75.7102,-24.616 L 75.5307,-24.6955
 L 75.3476,-24.7662 L 75.1611,-24.8278 L 74.9719,-24.8801 L 74.7804,-24.9231 L 74.5869,-24.9567 L 74.3921,-24.9807
 L 74.1963,-24.9952 L 74,-25 L 37,-25 L 36.8037,-24.9952 L 36.6079,-24.9807 L 36.4131,-24.9567
 L 36.2196,-24.9231 L 36.0281,-24.8801 L 35.8389,-24.8278 L 35.6524,-24.7662 L 35.4693,-24.6955 L 35.2898,-24.616
 L 35.1144,-24.5277 L 34.9436,-24.4309 L 34.7777,-24.3259 L 34.6172,-24.2128 L 34.4624,-24.092 L 34.3138,-23.9638
 L 34.1716,-23.8284 L 34.0362,-23.6862 L 33.908,-23.5376 L 33.7872,-23.3828 L 33.6741,-23.2223 L 33.5691,-23.0564
 L 33.4723,-22.8856 L 33.384,-22.7102 L 33.3045,-22.5307 L 33.2338,-22.3476 L 33.1722,-22.1611 L 33.1199,-21.9719
 L 33.0769,-21.7804 L 33.0433,-21.5869 L 33.0193,-21.3921 L 33.0048,-21.1963 L 33,-21 L 33,2
 L 50,2 L 50,4.2 L 33,4.2 L 33,9 L 33.0048,9.19627 L 33.0193,9.39207
 L 33.0433,9.58693 L 33.0769,9.78036 L 33.1199,9.97192 L 33.1722,10.1611 L 33.2338,10.3476 L 33.3045,10.5307
 L 33.384,10.7102 L 33.4723,10.8856 L 33.5691,11.0564 L 33.6741,11.2223 L 33.7872,11.3828 L 33.908,11.5376
 L 34.0362,11.6862 L 34.1716,11.8284 L 34.3138,11.9638 L 34.4624,12.092 L 34.6172,12.2128 L 34.7777,12.3259
 L 34.9436,12.4309 L 35.1144,12.5277 L 35.2898,12.616 L 35.4693,12.6955 L 35.6524,12.7662 L 35.8389,12.8278
 L 36.0281,12.8801 L 36.2196,12.9231 L 36.4131,12.9567 L 36.6079,12.9807 L 36.8037,12.9952 L 37,13
 L 50,13 z
M 0.441605,8.98915 L 0.882141,8.95665 L 1.32057,8.90259 L 1.7558,8.82706 L 2.18681,8.73027 L 2.61255,8.61246
 L 3.032,8.47389 L 3.44414,8.31491 L 3.84799,8.13589 L 4.24257,7.93729 L 4.62692,7.71954 L 5.00012,7.48322
 L 5.36128,7.22887 L 5.70953,6.95709 L 6.04402,6.66855 L 6.36395,6.36395 L 6.66855,6.04402 L 6.95709,5.70953
 L 7.22887,5.36128 L 7.48322,5.00012 L 7.71954,4.62692 L 7.93729,4.24257 L 8.13589,3.84799 L 8.31491,3.44414
 L 8.47389,3.032 L 8.61246,2.61255 L 8.73027,2.18681 L 8.82706,1.7558 L 8.90259,1.32057 L 8.95665,0.882141
 L 8.98915,0.441605 L 9,-0 L 22,-0 L 22.0981,-0.00241089 L 22.196,-0.0096283 L 22.2935,-0.0216522
 L 22.3902,-0.0384369 L 22.486,-0.0599365 L 22.5806,-0.0861206 L 22.6738,-0.116913 L 22.7654,-0.152237 L 22.8551,-0.192017
 L 22.9428,-0.23616 L 23.0282,-0.284546 L 23.1111,-0.337067 L 23.1914,-0.393585 L 23.2688,-0.453979 L 23.3431,-0.518097
 L 23.4142,-0.585785 L 23.4819,-0.656876 L 23.546,-0.731216 L 23.6064,-0.808609 L 23.6629,-0.888855 L 23.7155,-0.971802
 L 23.7638,-1.05721 L 23.808,-1.14488 L 23.8478,-1.23463 L 23.8831,-1.32622 L 23.9139,-1.41943 L 23.9401,-1.51404
 L 23.9616,-1.60982 L 23.9783,-1.70654 L 23.9904,-1.80397 L 23.9976,-1.90187 L 24,-2 L 24,-6
 L 23.9976,-6.09813 L 23.9904,-6.19603 L 23.9783,-6.29346 L 23.9616,-6.39018 L 23.9401,-6.48596 L 23.9139,-6.58057
 L 23.8831,-6.67378 L 23.8478,-6.76537 L 23.808,-6.85512 L 23.7638,-6.94279 L 23.7155,-7.0282 L 23.6629,-7.11115
 L 23.6064,-7.19139 L 23.546,-7.26878 L 23.4819,-7.34312 L 23.4142,-7.41422 L 23.3431,-7.4819 L 23.2688,-7.54602
 L 23.1914,-7.60641 L 23.1111,-7.66293 L 23.0282,-7.71545 L 22.9428,-7.76384 L 22.8551,-7.80798 L 22.7654,-7.84776
 L 22.6738,-7.88309 L 22.5806,-7.91388 L 22.486,-7.94006 L 22.3902,-7.96156 L 22.2935,-7.97835 L 22.196,-7.99037
 L 22.0981,-7.99759 L 22,-8 L -15,-8 L -15.0981,-7.99759 L -15.196,-7.99037 L -15.2935,-7.97835
 L -15.3902,-7.96156 L -15.486,-7.94006 L -15.5806,-7.91388 L -15.6738,-7.88309 L -15.7654,-7.84776 L -15.8551,-7.80798
 L -15.9428,-7.76384 L -16.0282,-7.71545 L -16.1111,-7.66293 L -16.1914,-7.60641 L -16.2688,-7.54602 L -16.3431,-7.4819
 L -16.4142,-7.41422 L -16.4819,-7.34312 L -16.546,-7.26878 L -16.6064,-7.19139 L -16.6629,-7.11115 L -16.7155,-7.0282
 L -16.7638,-6.94279 L -16.808,-6.85512 L -16.8478,-6.76537 L -16.8831,-6.67378 L -16.9139,-6.58057 L -16.9401,-6.48596
 L -16.9616,-6.39018 L -16.9783,-6.29346 L -16.9904,-6.19603 L -16.9976,-6.09813 L -17,-6 L -17,2
 L 0,2 L 0,4.2 L -17,4.2 L -17,7 L -16.9976,7.09813 L -16.9904,7.19603
 L -16.9783,7.29346 L -16.9616,7.39018 L -16.9401,7.48596 L -16.9139,7.58057 L -16.8831,7.67378 L -16.8478,7.76537
 L -16.808,7.85512 L -16.7638,7.94279 L -16.7155,8.0282 L -16.6629,8.11115 L -16.6064,8.19139 L -16.546,8.26878
 L -16.4819,8.34312 L -16.4142,8.41422 L -16.3431,8.4819 L -16.2688,8.54602 L -16.1914,8.60641 L -16.1111,8.66293
 L -16.0282,8.71545 L -15.9428,8.76384 L -15.8551,8.80798 L -15.7654,8.84776 L -15.6738,8.88309 L -15.5806,8.91388
 L -15.486,8.94006 L -15.3902,8.96156 L -15.2935,8.97835 L -15.196,8.99037 L -15.0981,8.99759 L -15,9
 L 0,9 z
M -49.5584,8.98915 L -49.1179,8.95665 L -48.6794,8.90259 L -48.2442,8.82706 L -47.8132,8.73027 L -47.3875,8.61246
 L -46.968,8.47389 L -46.5559,8.31491 L -46.152,8.13589 L -45.7574,7.93729 L -45.3731,7.71954 L -44.9999,7.48322
 L -44.6387,7.22887 L -44.2905,6.95709 L -43.956,6.66855 L -43.636,6.36395 L -43.3315,6.04402 L -43.0429,5.70953
 L -42.7711,5.36128 L -42.5168,5.00012 L -42.2805,4.62692 L -42.0627,4.24257 L -41.8641,3.84799 L -41.6851,3.44414
 L -41.5261,3.032 L -41.3875,2.61255 L -41.2697,2.18681 L -41.1729,1.7558 L -41.0974,1.32057 L -41.0434,0.882141
 L -41.0108,0.441605 L -41,-0 L -26.99,-0 L -26.9414,-0.00119019 L -26.893,-0.00476074 L -26.8448,-0.0107117
 L -26.7969,-0.0190125 L -26.7495,-0.0296631 L -26.7026,-0.0426178 L -26.6565,-0.0578613 L -26.6112,-0.0753479 L -26.5667,-0.095047
 L -26.5233,-0.116882 L -26.4811,-0.140839 L -26.44,-0.16684 L -26.4003,-0.194809 L -26.362,-0.224716 L -26.3252,-0.256454
 L -26.29,-0.289948 L -26.2565,-0.32515 L -26.2247,-0.361938 L -26.1948,-0.400253 L -26.1669,-0.439972 L -26.1409,-0.481033
 L -26.1169,-0.5233 L -26.0951,-0.566711 L -26.0754,-0.61113 L -26.0579,-0.656464 L -26.0426,-0.702606 L -26.0297,-0.749435
 L -26.019,-0.796844 L -26.0107,-0.844727 L -26.0048,-0.89296 L -26.0012,-0.941406 L -26,-1.00998 L -26.0012,-1.05856
 L -26.0048,-1.10701 L -26.0107,-1.15524 L -26.019,-1.20312 L -26.0297,-1.25053 L -26.0426,-1.29736 L -26.0579,-1.34351
 L -26.0754,-1.38884 L -26.0951,-1.43326 L -26.1169,-1.47667 L -26.1409,-1.51894 L -26.1669,-1.56 L -26.1948,-1.59972
 L -26.2247,-1.63803 L -26.2565,-1.67482 L -26.29,-1.71002 L -26.3252,-1.74352 L -26.362,-1.77525 L -26.4003,-1.80516
 L -26.44,-1.83313 L -26.4811,-1.85913 L -26.5233,-1.88309 L -26.5667,-1.90492 L -26.6112,-1.92462 L -26.6565,-1.94211
 L -26.7026,-1.95735 L -26.7495,-1.97031 L -26.7969,-1.98096 L -26.8448,-1.98926 L -26.893,-1.99521 L -26.9414,-1.99878
 L -26.99,-1.99998 L -66.01,-1.99998 L -66.0586,-1.99878 L -66.107,-1.99521 L -66.1553,-1.98926 L -66.2031,-1.98096
 L -66.2505,-1.97031 L -66.2974,-1.95735 L -66.3435,-1.94211 L -66.3889,-1.92462 L -66.4333,-1.90492 L -66.4767,-1.88309
 L -66.519,-1.85913 L -66.56,-1.83313 L -66.5997,-1.80516 L -66.638,-1.77525 L -66.6748,-1.74352 L -66.71,-1.71002
 L -66.7435,-1.67482 L -66.7753,-1.63803 L -66.8052,-1.59972 L -66.8331,-1.56 L -66.8591,-1.51894 L -66.8831,-1.47667
 L -66.9049,-1.43326 L -66.9246,-1.38884 L -66.9421,-1.34351 L -66.9574,-1.29736 L -66.9703,-1.25053 L -66.981,-1.20312
 L -66.9893,-1.15524 L -66.9952,-1.10701 L -66.9988,-1.05856 L -67,-0.98999 L -67,2 L -50,2
 L -50,4.2 L -67,4.2 L -67,8.00999 L -66.9988,8.05858 L -66.9952,8.10703 L -66.9893,8.15526
 L -66.981,8.20314 L -66.9703,8.25055 L -66.9574,8.29738 L -66.9421,8.34352 L -66.9246,8.38885 L -66.9049,8.43327
 L -66.8831,8.47668 L -66.8591,8.51895 L -66.8331,8.56001 L -66.8052,8.59973 L -66.7753,8.63805 L -66.7435,8.67484
 L -66.71,8.71004 L -66.6748,8.74353 L -66.638,8.77527 L -66.5997,8.80518 L -66.56,8.83315 L -66.519,8.85915
 L -66.4767,8.8831 L -66.4333,8.90494 L -66.3889,8.92464 L -66.3435,8.94212 L -66.2974,8.95737 L -66.2505,8.97032
 L -66.2031,8.98097 L -66.1553,8.98927 L -66.107,8.99522 L -66.0586,8.99879 L -66.01,9 L -50,9
 z
" stroke="black" fill="lightgray" stroke-width="0.5"/></svg>
