<?xml version="1.0" standalone="no"?>
<!DOCTYPE svg PUBLIC "-//W3C//DTD SVG 1.1//EN" "http://www.w3.org/Graphics/SVG/1.1/DTD/svg11.dtd">
<svg width="16" height="30" viewBox="-8 -30 16 30" xmlns="http://www.w3.org/2000/svg" version="1.1">
<title>OpenSCAD Model</title>
<path d="
M 7.25,-0 L 7.17496,-3.35988 L 7.08401,-6.33333 L 6.97229,-9.18388 L 6.85159,-11.6889 L 6.71342,-14.0908
 L 6.57265,-16.1846 L 6.41742,-18.1932 L 6.24776,-20.1164 L 6.0827,-21.7743 L 5.90596,-23.3631 L 5.7175,-24.8828
 L 5.54018,-26.1756 L 5.35359,-27.4138 L 5.15778,-28.5973 L 4.97884,-29.5882 L 4.89999,-30 L -2.99998,-30
 L -3.1221,-29.7973 L -3.24246,-29.5893 L -3.36104,-29.376 L -3.47784,-29.1573 L -3.64973,-28.8193 L -3.81766,-28.4693
 L -3.9816,-28.1073 L -4.14154,-27.7333 L -4.29753,-27.3473 L -4.44952,-26.9493 L -4.59753,-26.5393 L -4.74158,-26.1173
 L -4.88164,-25.6833 L -5.01772,-25.2373 L -5.14981,-24.7793 L -5.27792,-24.3093 L -5.40205,-23.8273 L -5.52222,-23.3333
 L -5.6384,-22.8273 L -5.7506,-22.3093 L -5.85881,-21.7793 L -5.96304,-21.2373 L -6.06329,-20.6833 L -6.19078,-19.926
 L -6.31119,-19.1473 L -6.42453,-18.3473 L -6.53078,-17.526 L -6.62996,-16.6833 L -6.72208,-15.8193 L -6.8071,-14.934
 L -6.88506,-14.0273 L -6.95593,-13.0993 L -7.01974,-12.15 L -7.07648,-11.1793 L -7.12613,-10.1873 L -7.17824,-8.91733
 L -7.2193,-7.614 L -7.24931,-6.27733 L -7.26826,-4.90732 L -7.27615,-3.504 L -7.27299,-2.06732 L -7.25877,-0.597321
 L -7.25,-0 z
" stroke="black" fill="lightgray" stroke-width="0.5"/></svg>
