  0
SECTION
  2
HEADER
  9
$ACADVER
  1
AC1009
  9
$EXTMIN
 10
0.0
 20
0.0
 30
0.0
  9
$EXTMAX
 10
1000.0
 20
1000.0
 30
0.0
  9
$FILLMODE
 70
 0
  9
$SPLFRAME
 70
 1
  0
ENDSEC
  0
SECTION
  2
TABLES
  0
TABLE
  2
LAYER
 70
1
  0
LAYER
  2
0
 70
     0
 62
     7
  6
CONTINUOUS
  0
ENDTAB
  0
ENDSEC
  0
SECTION
  2
ENTITIES
  0
LINE
  8
0
 62
     142
 10
4.7625
 20
3.49195
 30
0.0
 11
4.76525
 21
3.49608
 31
0.0
  0
LINE
  8
0
 62
     142
 10
4.76525
 20
3.49608
 30
0.0
 11
4.76525
 21
3.54295
 31
0.0
  0
LINE
  8
0
 62
     142
 10
4.76525
 20
3.54295
 30
0.0
 11
4.7625
 21
3.5457
 31
0.0
  0
LINE
  8
0
 62
     142
 10
4.7625
 20
3.5457
 30
0.0
 11
4.72115
 21
3.60355
 31
0.0
  0
LINE
  8
0
 62
     142
 10
4.72115
 20
3.60355
 30
0.0
 11
4.28018
 21
4.15477
 31
0.0
  0
LINE
  8
0
 62
     142
 10
4.28018
 20
4.15477
 30
0.0
 11
4.23333
 21
4.20716
 31
0.0
  0
LINE
  8
0
 62
     142
 10
4.23333
 20
4.20716
 30
0.0
 11
4.23333
 21
4.21404
 31
0.0
  0
LINE
  8
0
 62
     142
 10
4.23333
 20
4.21404
 30
0.0
 11
4.21679
 21
4.23058
 31
0.0
  0
LINE
  8
0
 62
     142
 10
4.21679
 20
4.23058
 30
0.0
 11
4.18924
 21
4.23333
 31
0.0
  0
LINE
  8
0
 62
     142
 10
4.18924
 20
4.23333
 30
0.0
 11
4.18098
 21
4.23333
 31
0.0
  0
LINE
  8
0
 62
     142
 10
4.18098
 20
4.23333
 30
0.0
 11
3.90948
 21
4.15618
 31
0.0
  0
LINE
  8
0
 62
     142
 10
3.90948
 20
4.15618
 30
0.0
 11
3.10196
 21
3.89297
 31
0.0
  0
LINE
  8
0
 62
     142
 10
3.10196
 20
3.89297
 30
0.0
 11
2.04501
 21
3.49608
 31
0.0
  0
LINE
  8
0
 62
     142
 10
2.04501
 20
3.49608
 30
0.0
 11
1.0101
 21
3.04546
 31
0.0
  0
LINE
  8
0
 62
     142
 10
1.0101
 20
3.04546
 30
0.0
 11
0.248047
 21
2.67202
 31
0.0
  0
LINE
  8
0
 62
     142
 10
0.248047
 20
2.67202
 30
0.0
 11
0
 21
2.53972
 31
0.0
  0
LINE
  8
0
 62
     142
 10
0
 20
2.53972
 30
0.0
 11
0
 21
1.5875
 31
0.0
  0
LINE
  8
0
 62
     142
 10
0
 20
1.5875
 30
0.0
 11
0.235645
 21
1.71428
 31
0.0
  0
LINE
  8
0
 62
     142
 10
0.235645
 20
1.71428
 30
0.0
 11
1.44418
 21
2.2903
 31
0.0
  0
LINE
  8
0
 62
     142
 10
1.44418
 20
2.2903
 30
0.0
 11
2.68442
 21
2.79466
 31
0.0
  0
LINE
  8
0
 62
     142
 10
2.68442
 20
2.79466
 30
0.0
 11
2.9366
 21
2.88423
 31
0.0
  0
LINE
  8
0
 62
     142
 10
2.9366
 20
2.88423
 30
0.0
 11
2.79879
 21
2.77124
 31
0.0
  0
LINE
  8
0
 62
     142
 10
2.79879
 20
2.77124
 30
0.0
 11
2.40054
 21
2.41294
 31
0.0
  0
LINE
  8
0
 62
     142
 10
2.40054
 20
2.41294
 30
0.0
 11
1.89894
 21
1.90583
 31
0.0
  0
LINE
  8
0
 62
     142
 10
1.89894
 20
1.90583
 30
0.0
 11
1.43316
 21
1.36563
 31
0.0
  0
LINE
  8
0
 62
     142
 10
1.43316
 20
1.36563
 30
0.0
 11
1.10794
 21
0.939821
 31
0.0
  0
LINE
  8
0
 62
     142
 10
1.10794
 20
0.939821
 30
0.0
 11
1.00597
 21
0.79375
 31
0.0
  0
LINE
  8
0
 62
     142
 10
1.00597
 20
0.79375
 30
0.0
 11
0.999077
 21
0.78824
 31
0.0
  0
LINE
  8
0
 62
     142
 10
0.999077
 20
0.78824
 30
0.0
 11
0.985298
 21
0.767567
 31
0.0
  0
LINE
  8
0
 62
     142
 10
0.985298
 20
0.767567
 30
0.0
 11
0.999077
 21
0.746898
 31
0.0
  0
LINE
  8
0
 62
     142
 10
0.999077
 20
0.746898
 30
0.0
 11
1.00597
 21
0.741384
 31
0.0
  0
LINE
  8
0
 62
     142
 10
1.00597
 20
0.741384
 30
0.0
 11
1.5875
 21
0.0523656
 31
0.0
  0
LINE
  8
0
 62
     142
 10
1.5875
 20
0.0523656
 30
0.0
 11
1.59714
 21
0.0523656
 31
0.0
  0
LINE
  8
0
 62
     142
 10
1.59714
 20
0.0523656
 30
0.0
 11
1.62609
 21
0.0427193
 31
0.0
  0
LINE
  8
0
 62
     142
 10
1.62609
 20
0.0427193
 30
0.0
 11
1.66054
 21
0.0468535
 31
0.0
  0
LINE
  8
0
 62
     142
 10
1.66054
 20
0.0468535
 30
0.0
 11
1.66743
 21
0.0523656
 31
0.0
  0
LINE
  8
0
 62
     142
 10
1.66743
 20
0.0523656
 30
0.0
 11
1.93752
 21
0.172255
 31
0.0
  0
LINE
  8
0
 62
     142
 10
1.93752
 20
0.172255
 30
0.0
 11
2.76159
 21
0.502984
 31
0.0
  0
LINE
  8
0
 62
     142
 10
2.76159
 20
0.502984
 30
0.0
 11
3.8778
 21
0.895724
 31
0.0
  0
LINE
  8
0
 62
     142
 10
3.8778
 20
0.895724
 30
0.0
 11
5.01329
 21
1.23197
 31
0.0
  0
LINE
  8
0
 62
     142
 10
5.01329
 20
1.23197
 30
0.0
 11
5.87597
 21
1.44694
 31
0.0
  0
LINE
  8
0
 62
     142
 10
5.87597
 20
1.44694
 30
0.0
 11
6.16536
 21
1.50757
 31
0.0
  0
LINE
  8
0
 62
     142
 10
6.16536
 20
1.50757
 30
0.0
 11
6.16536
 21
2.61965
 31
0.0
  0
LINE
  8
0
 62
     142
 10
6.16536
 20
2.61965
 30
0.0
 11
5.8856
 21
2.55902
 31
0.0
  0
LINE
  8
0
 62
     142
 10
5.8856
 20
2.55902
 30
0.0
 11
4.50617
 21
2.1897
 31
0.0
  0
LINE
  8
0
 62
     142
 10
4.50617
 20
2.1897
 30
0.0
 11
3.1502
 21
1.74184
 31
0.0
  0
LINE
  8
0
 62
     142
 10
3.1502
 20
1.74184
 30
0.0
 11
2.88423
 21
1.63987
 31
0.0
  0
LINE
  8
0
 62
     142
 10
2.88423
 20
1.63987
 30
0.0
 11
3.02204
 21
1.81212
 31
0.0
  0
LINE
  8
0
 62
     142
 10
3.02204
 20
1.81212
 30
0.0
 11
3.76894
 21
2.62241
 31
0.0
  0
LINE
  8
0
 62
     142
 10
3.76894
 20
2.62241
 30
0.0
 11
4.58749
 21
3.3569
 31
0.0
  0
LINE
  8
0
 62
     142
 10
4.58749
 20
3.3569
 30
0.0
 11
4.7625
 21
3.49195
 31
0.0
  0
ENDSEC
  0
EOF
